<?xml version="1.0" encoding="UTF-8"?> <svg xmlns="http://www.w3.org/2000/svg" width="311" height="185" viewBox="0 0 311 185" fill="none"><g clip-path="url(#clip0)"><path d="M30.8308 150.908C29.8521 150.908 28.9957 150.908 28.0169 150.786C27.7722 150.786 27.5275 150.542 27.6499 150.297C27.6499 150.053 27.8946 149.809 28.1393 149.931C29.9744 150.053 31.8096 150.053 33.6448 149.931C33.8895 149.931 34.1341 150.053 34.1341 150.297C34.1341 150.542 34.0118 150.786 33.7671 150.786C32.666 150.908 31.6873 150.908 30.8308 150.908ZM22.5114 149.809H22.3891C20.5539 149.32 18.8411 148.587 17.1282 147.731C16.8836 147.609 16.7612 147.365 16.8836 147.12C17.0059 146.876 17.2506 146.754 17.4953 146.876C19.0858 147.731 20.9209 148.342 22.6338 148.831C22.8784 148.953 23.0008 149.198 23.0008 149.442C22.8784 149.686 22.7561 149.809 22.5114 149.809ZM39.1503 149.809C38.9056 149.809 38.7832 149.686 38.6609 149.442C38.5386 149.198 38.7832 148.953 39.0279 148.831C40.7408 148.342 42.5759 147.609 44.1664 146.876C44.4111 146.754 44.6558 146.876 44.7781 147.12C44.9005 147.365 44.7781 147.609 44.5334 147.731C42.8206 148.587 41.1078 149.32 39.2726 149.809C39.1503 149.809 39.1503 149.809 39.1503 149.809ZM12.4792 144.799C12.3568 144.799 12.2345 144.799 12.2345 144.676C10.7663 143.577 9.29819 142.233 8.07474 140.889C7.9524 140.644 7.9524 140.4 8.07474 140.278C8.31943 140.155 8.56412 140.155 8.68647 140.278C9.90991 141.622 11.2557 142.844 12.7238 143.943C12.9685 144.066 12.9685 144.432 12.8462 144.554C12.8462 144.799 12.7238 144.799 12.4792 144.799ZM49.0602 144.799C48.9378 144.799 48.8155 144.676 48.6932 144.676C48.5708 144.432 48.5708 144.188 48.8155 144.066C50.2836 142.966 51.6294 141.744 52.8529 140.4C52.9752 140.155 53.3423 140.155 53.4646 140.4C53.7093 140.522 53.7093 140.889 53.4646 141.011C52.2411 142.355 50.773 143.699 49.3049 144.799C49.3049 144.799 49.1825 144.799 49.0602 144.799ZM5.01613 136.612C4.89378 136.612 4.77144 136.49 4.6491 136.367C3.67034 134.779 2.81393 133.068 2.07986 131.235C1.95751 130.991 2.07986 130.747 2.32455 130.624C2.56924 130.502 2.81393 130.624 2.93627 130.869C3.54799 132.579 4.40441 134.29 5.38316 135.756C5.50551 136.001 5.50551 136.245 5.26082 136.367C5.13847 136.612 5.13847 136.612 5.01613 136.612ZM56.5232 136.612C56.4009 136.612 56.4009 136.612 56.2785 136.49C56.0338 136.367 56.0338 136.123 56.1562 135.879C57.1349 134.29 57.9913 132.702 58.6031 130.991C58.7254 130.746 58.9701 130.624 59.2148 130.747C59.4595 130.869 59.5818 131.113 59.4595 131.357C58.7254 133.068 57.869 134.779 56.8902 136.49C56.8902 136.49 56.7679 136.612 56.5232 136.612ZM0.978757 126.225C0.734068 126.225 0.611723 126.103 0.489378 125.859C0.122345 124.026 0 122.071 0 120.238C0 119.994 0.244689 119.749 0.489378 119.749C0.734068 119.749 0.978757 119.994 0.978757 120.238C0.978757 122.071 1.1011 123.904 1.46814 125.737C1.46814 125.981 1.34579 126.225 0.978757 126.225ZM60.5606 126.225C60.1936 126.225 60.0712 125.981 60.0712 125.737C60.4382 123.904 60.5606 122.071 60.5606 120.238C60.5606 119.994 60.8053 119.749 61.05 119.749C61.2947 119.749 61.5393 119.871 61.5393 120.116C61.5393 122.071 61.417 123.904 61.05 125.859C61.05 125.981 60.8053 126.225 60.5606 126.225ZM0.978757 115.106C0.978757 115.106 0.856412 115.106 0.978757 115.106C0.611723 115.106 0.489378 114.861 0.489378 114.617C0.856412 112.784 1.34579 110.951 2.07986 109.118C2.2022 108.874 2.44689 108.752 2.69158 108.874C2.93627 108.996 3.05862 109.241 2.93627 109.485C2.32455 111.196 1.71282 113.029 1.46814 114.739C1.34579 114.984 1.22345 115.106 0.978757 115.106ZM60.5606 114.984C60.3159 114.984 60.1935 114.861 60.0712 114.617C59.7042 112.784 59.2148 111.073 58.6031 109.363C58.4807 109.118 58.6031 108.874 58.8478 108.752C59.0924 108.63 59.3371 108.752 59.4595 108.996C60.1935 110.707 60.6829 112.54 61.05 114.495C61.05 114.739 60.9276 114.984 60.5606 114.984C60.6829 114.984 60.5606 114.984 60.5606 114.984ZM5.01613 104.719C4.89378 104.719 4.89378 104.719 4.77144 104.597C4.52675 104.475 4.52675 104.231 4.6491 103.986C5.62785 102.398 6.8513 100.809 8.07474 99.4651C8.19709 99.2207 8.56412 99.2207 8.68647 99.4651C8.93116 99.5873 8.93116 99.9539 8.68647 100.076C7.46302 101.42 6.36192 102.887 5.38316 104.475C5.26082 104.597 5.13847 104.719 5.01613 104.719ZM56.5232 104.597C56.4009 104.597 56.2785 104.475 56.1562 104.353C55.1774 102.764 54.0763 101.298 52.8529 99.9539C52.7305 99.7095 52.7305 99.4651 52.8529 99.3429C53.0976 99.2207 53.3423 99.2207 53.4646 99.3429C54.688 100.687 55.9115 102.276 56.8902 103.864C57.0126 104.108 57.0126 104.353 56.7679 104.475C56.6456 104.597 56.6456 104.597 56.5232 104.597ZM12.4792 96.5325C12.3568 96.5325 12.2345 96.4103 12.1121 96.4103C11.9898 96.1659 11.9898 95.9215 12.2345 95.7993C13.7026 94.6996 15.4154 93.5999 17.0059 92.7445C17.2506 92.6223 17.4953 92.7445 17.6176 92.9889C17.74 93.2333 17.6176 93.4777 17.3729 93.5999C15.7825 94.4552 14.192 95.4328 12.7238 96.5325C12.6015 96.4103 12.6015 96.5325 12.4792 96.5325ZM22.3891 91.5226C22.1444 91.5226 22.022 91.4004 21.8997 91.156C21.7773 90.9116 22.022 90.6672 22.2667 90.5451C24.1019 90.0563 25.9371 89.6897 27.8946 89.4453C28.1393 89.4453 28.384 89.5675 28.384 89.8119C28.384 90.0563 28.2616 90.3007 28.0169 90.3007C26.1817 90.4229 24.3466 90.7894 22.6338 91.2782C22.5114 91.5226 22.5114 91.5226 22.3891 91.5226Z" fill="#B2C1E8"></path><path d="M265.488 102.398C264.509 102.398 263.653 102.398 262.674 102.275C262.429 102.275 262.184 102.031 262.307 101.787C262.307 101.542 262.552 101.298 262.796 101.42C264.631 101.542 266.467 101.542 268.302 101.42C268.546 101.42 268.791 101.542 268.791 101.787C268.791 102.031 268.669 102.275 268.424 102.275C267.445 102.398 266.467 102.398 265.488 102.398ZM257.291 101.298H257.168C255.333 100.809 253.62 100.076 251.908 99.2206C251.663 99.0984 251.541 98.854 251.663 98.6096C251.785 98.3652 252.03 98.243 252.275 98.3652C253.865 99.2206 255.7 99.8315 257.413 100.32C257.658 100.442 257.78 100.687 257.78 100.931C257.658 101.176 257.413 101.298 257.291 101.298ZM273.807 101.298C273.563 101.298 273.44 101.176 273.318 100.931C273.196 100.687 273.44 100.442 273.685 100.32C275.398 99.8315 277.233 99.0984 278.823 98.3652C279.068 98.243 279.313 98.3652 279.435 98.6096C279.557 98.854 279.435 99.0984 279.19 99.2206C277.478 100.076 275.765 100.809 273.93 101.298H273.807ZM247.258 96.4101C247.136 96.4101 247.014 96.4101 247.014 96.2879C245.546 95.1882 244.077 93.8441 242.854 92.5C242.732 92.2556 242.732 92.0112 242.854 91.889C243.099 91.7668 243.343 91.7668 243.466 91.889C244.689 93.2331 246.035 94.455 247.503 95.5548C247.748 95.677 247.748 96.0436 247.625 96.1657C247.503 96.2879 247.381 96.4101 247.258 96.4101ZM283.84 96.2879C283.717 96.2879 283.595 96.1657 283.472 96.1657C283.35 95.9214 283.35 95.677 283.595 95.5548C285.063 94.455 286.409 93.2331 287.632 91.889C287.755 91.6446 288.122 91.6446 288.244 91.889C288.489 92.0112 288.489 92.3778 288.244 92.5C287.02 93.8441 285.552 95.1882 284.084 96.2879C283.962 96.2879 283.84 96.2879 283.84 96.2879ZM239.795 88.101C239.673 88.101 239.551 87.9788 239.428 87.8566C238.45 86.2681 237.593 84.5574 236.859 82.7245C236.737 82.4801 236.859 82.2358 237.104 82.1136C237.349 81.9914 237.593 82.1136 237.716 82.358C238.327 84.0687 239.184 85.7794 240.162 87.2457C240.285 87.4901 240.285 87.7344 240.04 87.8566C239.918 88.101 239.795 88.101 239.795 88.101ZM291.303 88.101C291.18 88.101 291.18 88.101 291.058 87.9788C290.813 87.8566 290.813 87.6122 290.935 87.3679C291.914 85.7794 292.771 84.1908 293.382 82.4801C293.505 82.2358 293.749 82.1136 293.994 82.2358C294.239 82.358 294.361 82.6023 294.239 82.8467C293.505 84.5574 292.648 86.2681 291.67 87.9788C291.547 87.9788 291.425 88.101 291.303 88.101ZM235.758 77.8368C235.513 77.8368 235.391 77.7146 235.269 77.4702C234.902 75.6373 234.779 73.6823 234.779 71.8494C234.779 71.605 235.024 71.3606 235.269 71.3606C235.513 71.3606 235.758 71.605 235.758 71.8494C235.758 73.6823 235.88 75.5152 236.247 77.348C236.247 77.4702 236.003 77.7146 235.758 77.8368ZM295.34 77.7146C295.34 77.7146 295.218 77.7146 295.34 77.7146C294.973 77.7146 294.851 77.4702 294.851 77.2259C295.218 75.393 295.34 73.5601 295.34 71.7272C295.34 71.4828 295.585 71.2384 295.829 71.2384C296.074 71.2384 296.319 71.3606 296.319 71.605C296.319 73.5601 296.196 75.393 295.829 77.348C295.707 77.5924 295.585 77.7146 295.34 77.7146ZM235.636 66.5951C235.269 66.5951 235.146 66.3507 235.146 66.1063C235.513 64.2734 236.003 62.4405 236.737 60.6076C236.859 60.3632 237.104 60.241 237.349 60.3632C237.593 60.4854 237.716 60.7298 237.593 60.9742C236.982 62.6849 236.37 64.5178 236.125 66.2285C236.125 66.4729 235.88 66.5951 235.636 66.5951ZM295.34 66.4729C295.095 66.4729 294.973 66.3507 294.851 66.1063C294.483 64.2734 293.994 62.5627 293.382 60.852C293.26 60.6076 293.382 60.3632 293.627 60.241C293.872 60.1189 294.116 60.241 294.239 60.4854C294.973 62.1961 295.462 64.029 295.829 65.9841C295.829 66.2285 295.585 66.4729 295.34 66.4729ZM239.673 56.3309C239.551 56.3309 239.551 56.3309 239.428 56.2087C239.184 56.0865 239.184 55.8421 239.306 55.5977C240.285 54.0092 241.508 52.4207 242.732 51.0766C242.854 50.8322 243.221 50.8322 243.343 51.0766C243.588 51.1988 243.588 51.5653 243.343 51.6875C242.12 53.0317 241.019 54.498 240.04 56.0865C240.04 56.2087 239.795 56.3309 239.673 56.3309ZM291.303 56.2087C291.18 56.2087 291.058 56.0865 290.935 55.9643C289.957 54.3758 288.856 52.9095 287.632 51.5654C287.51 51.321 287.51 51.0766 287.632 50.9544C287.877 50.8322 288.122 50.8322 288.244 50.9544C289.467 52.2985 290.691 53.887 291.67 55.4755C291.792 55.7199 291.792 55.9643 291.547 56.0865C291.425 56.0865 291.303 56.2087 291.303 56.2087ZM247.136 48.0218C247.014 48.0218 246.891 47.8996 246.769 47.8996C246.647 47.6552 246.647 47.4108 246.891 47.2886C248.36 46.1889 250.072 45.0891 251.663 44.2338C251.908 44.1116 252.152 44.2338 252.275 44.4782C252.397 44.7226 252.275 44.9669 252.03 45.0891C250.439 45.9445 248.849 46.922 247.381 48.0218C247.381 48.0218 247.258 48.0218 247.136 48.0218ZM257.168 43.0119C256.924 43.0119 256.801 42.8897 256.679 42.6453C256.557 42.4009 256.801 42.1565 257.046 42.0343C258.881 41.5455 260.716 41.179 262.674 40.9346C262.919 40.9346 263.163 41.0568 263.163 41.3011C263.163 41.5455 263.041 41.7899 262.796 41.7899C260.961 41.9121 259.126 42.2787 257.413 42.7675C257.291 43.0118 257.168 43.0119 257.168 43.0119Z" fill="#B2C1E8"></path><path d="M151.341 10.1422H134.702V7.454L143.021 3.17725L151.341 7.454V10.1422ZM134.946 10.02H151.218V7.57619L143.021 3.29944L134.824 7.57619V10.02H134.946Z" fill="#B2C1E8"></path><path d="M150.362 9.16457H135.68V8.06483L143.021 4.27686L150.362 8.06483V9.16457ZM135.803 9.04238H150.239V8.06483L143.021 4.27686L135.803 8.06483V9.04238Z" fill="#B2C1E8"></path><path d="M138.984 11.6085H135.803V10.02H138.984V11.6085ZM135.925 11.4863H138.739V10.1422H135.925V11.4863Z" fill="#B2C1E8"></path><path d="M138.372 18.4513H136.537V11.4863H138.372V18.4513ZM136.537 18.3291H138.127V11.6085H136.537V18.3291Z" fill="#B2C1E8"></path><path d="M150.729 20.0398H135.191V18.3291H150.729V20.0398ZM135.313 19.7954H150.606V18.3291H135.313V19.7954Z" fill="#B2C1E8"></path><path d="M150.24 11.6085H147.059V10.02H150.24V11.6085ZM147.181 11.4863H149.995V10.1422H147.181V11.4863Z" fill="#B2C1E8"></path><path d="M149.628 18.4513H147.792V11.4863H149.628V18.4513ZM147.915 18.3291H149.505V11.6085H147.915V18.3291Z" fill="#B2C1E8"></path><path d="M143.266 17.4738H142.654V16.7406C142.287 16.7406 141.797 16.6184 141.553 16.374L141.797 15.7631H141.92C142.164 16.0075 142.654 16.1297 143.021 16.1297C143.51 16.1297 143.877 15.8853 143.877 15.5187C143.877 15.1521 143.633 14.9077 143.021 14.6633C142.287 14.419 141.675 14.0524 141.675 13.3192C141.675 12.7083 142.164 12.2195 142.776 11.9751V10.9976H143.388V11.7307C143.755 11.7307 144.122 11.8529 144.367 11.9751L144.122 12.5861H144C143.877 12.4639 143.51 12.3417 143.021 12.3417C142.531 12.3417 142.287 12.7083 142.287 12.9526C142.287 13.3192 142.531 13.4414 143.143 13.808C144 14.1746 144.367 14.5412 144.367 15.2743C144.367 15.8853 144 16.4962 143.143 16.6184V17.4738H143.266ZM142.776 17.2294H143.143V16.4962H143.266C144 16.374 144.367 15.7631 144.367 15.2743C144.367 14.6633 144 14.2968 143.266 13.9302C142.531 13.6858 142.287 13.4414 142.287 12.9526C142.287 12.5861 142.531 12.2195 143.143 12.2195C143.633 12.2195 143.877 12.3417 144.122 12.4639L144.244 12.0973C144 11.9751 143.633 11.8529 143.388 11.8529H143.266V11.1198H142.899V11.8529H142.776C142.164 11.9751 141.675 12.4639 141.675 12.9526C141.675 13.5636 142.042 13.808 142.899 14.1746C143.51 14.419 143.755 14.7855 143.755 15.1521C143.755 15.6409 143.388 16.0075 142.776 16.0075C142.409 16.0075 142.042 15.8853 141.675 15.7631L141.553 16.1297C141.797 16.2519 142.287 16.374 142.654 16.374H142.776V17.2294Z" fill="#B2C1E8"></path><path d="M128.951 153.964V153.108C128.462 153.108 127.973 152.986 127.605 152.742L127.85 152.131C128.095 152.375 128.584 152.497 129.074 152.497C129.685 152.497 130.052 152.131 130.052 151.642C130.052 151.153 129.685 150.909 129.074 150.664C128.217 150.298 127.728 149.931 127.728 149.198C127.728 148.465 128.217 147.976 128.951 147.854V146.999H129.441V147.854C129.93 147.854 130.297 147.976 130.542 148.098L130.297 148.709C130.175 148.587 129.808 148.465 129.196 148.465C128.584 148.465 128.34 148.831 128.34 149.198C128.34 149.687 128.707 149.809 129.441 150.176C130.297 150.542 130.786 150.909 130.786 151.764C130.786 152.375 130.297 153.108 129.441 153.23V154.086H128.951V153.964Z" fill="#B2C1E8"></path><path d="M129.196 155.552C126.382 155.552 124.058 153.23 124.058 150.42C124.058 147.609 126.382 145.288 129.196 145.288C132.01 145.288 134.335 147.609 134.335 150.42C134.335 153.23 132.01 155.552 129.196 155.552ZM129.196 145.532C126.505 145.532 124.302 147.731 124.302 150.42C124.302 153.108 126.505 155.307 129.196 155.307C131.888 155.307 134.09 153.108 134.09 150.42C134.09 147.731 131.888 145.532 129.196 145.532Z" fill="#B2C1E8"></path><path d="M276.866 162.883V162.028C276.376 162.028 275.887 161.906 275.52 161.662L275.765 161.051C276.009 161.295 276.499 161.417 276.988 161.417C277.6 161.417 277.967 161.051 277.967 160.562C277.967 160.073 277.6 159.829 276.988 159.584C276.132 159.218 275.642 158.851 275.642 158.118C275.642 157.385 276.132 156.896 276.866 156.774V155.918H277.355V156.774C277.845 156.774 278.212 156.896 278.456 157.018L278.212 157.629C278.089 157.507 277.722 157.385 277.111 157.385C276.499 157.385 276.254 157.751 276.254 158.118C276.254 158.607 276.621 158.729 277.355 159.095C278.212 159.462 278.701 159.829 278.701 160.684C278.701 161.295 278.212 162.028 277.355 162.15V163.006H276.866V162.883Z" fill="#B2C1E8"></path><path d="M277.233 164.472C274.419 164.472 272.094 162.15 272.094 159.34C272.094 156.529 274.419 154.208 277.233 154.208C280.047 154.208 282.371 156.529 282.371 159.34C282.371 162.15 280.047 164.472 277.233 164.472ZM277.233 154.452C274.541 154.452 272.339 156.651 272.339 159.34C272.339 162.028 274.541 164.227 277.233 164.227C279.924 164.227 282.127 162.028 282.127 159.34C282.127 156.651 279.924 154.452 277.233 154.452Z" fill="#B2C1E8"></path><path d="M209.576 50.0994H190.001V39.5908H209.576V50.0994ZM190.246 49.855H209.331V39.713H190.246V49.855Z" fill="#B2C1E8"></path><path d="M206.028 48.6332H193.671V48.511C193.671 47.4113 192.815 46.4337 191.592 46.4337H191.469V43.1345H191.592C192.693 43.1345 193.671 42.2792 193.671 41.0572V40.9351H206.028V41.0572C206.028 42.157 206.885 43.1345 208.108 43.1345H208.23V46.4337H207.986C206.885 46.5559 206.028 47.4113 206.028 48.6332ZM193.794 48.3888H205.661C205.661 47.2891 206.64 46.3115 207.863 46.1893V43.2567C206.762 43.2567 205.784 42.2792 205.661 41.0572H193.794C193.794 42.157 192.815 43.1345 191.592 43.2567V46.1893C192.815 46.3115 193.794 47.2891 193.794 48.3888Z" fill="#B2C1E8"></path><path d="M201.134 46.5557H198.32C197.342 46.5557 196.607 45.8225 196.607 44.845C196.607 43.8674 197.342 43.1343 198.32 43.1343H201.134C202.113 43.1343 202.847 43.8674 202.847 44.845C202.969 45.8225 202.113 46.5557 201.134 46.5557ZM198.443 43.3787C197.586 43.3787 196.974 44.1118 196.974 44.845C196.974 45.7003 197.709 46.3113 198.443 46.3113H201.257C202.113 46.3113 202.725 45.5781 202.725 44.845C202.725 43.9896 201.991 43.3787 201.257 43.3787H198.443Z" fill="#B2C1E8"></path><path d="M194.16 46.0669C193.549 46.0669 192.937 45.5781 192.937 44.845C192.937 44.234 193.426 43.623 194.16 43.623C194.772 43.623 195.384 44.1118 195.384 44.845C195.384 45.4559 194.895 46.0669 194.16 46.0669ZM194.16 43.8674C193.671 43.8674 193.182 44.3562 193.182 44.845C193.182 45.3337 193.671 45.8225 194.16 45.8225C194.65 45.8225 195.139 45.3337 195.139 44.845C195.139 44.3562 194.772 43.8674 194.16 43.8674Z" fill="#B2C1E8"></path><path d="M205.294 46.0669C204.683 46.0669 204.071 45.5781 204.071 44.845C204.071 44.234 204.56 43.623 205.294 43.623C205.906 43.623 206.518 44.1118 206.518 44.845C206.518 45.4559 206.028 46.0669 205.294 46.0669ZM205.294 43.8674C204.805 43.8674 204.315 44.3562 204.315 44.845C204.315 45.3337 204.805 45.8225 205.294 45.8225C205.784 45.8225 206.273 45.3337 206.273 44.845C206.273 44.3562 205.906 43.8674 205.294 43.8674Z" fill="#B2C1E8"></path><path d="M52.975 96.8991H49.5494V95.0662C48.8153 95.1884 48.2036 95.1884 47.4695 95.1884C45.6343 95.1884 43.9215 94.944 42.331 94.3331V96.8991H38.9054V92.5002C37.4372 91.4004 36.3361 89.9341 35.7244 88.3456C34.7457 88.3456 33.5222 88.1012 32.7881 87.3681L32.5435 87.1237H32.9105C32.9105 87.1237 34.2563 87.2459 35.3574 86.024V85.9018C35.3574 80.7697 40.8629 76.7373 47.5918 76.7373C49.9164 76.7373 52.1186 77.2261 54.0761 78.0814C56.6453 75.6376 56.7677 75.7597 56.7677 75.8819C56.89 75.8819 56.89 76.0041 56.89 79.9143C58.8476 81.625 59.8263 83.7023 59.8263 85.9018L62.1509 86.024V86.1461C62.1509 86.5127 62.0285 86.7571 62.0285 87.1237C61.7838 88.9566 61.6615 90.6673 58.2358 90.6673C58.1135 90.6673 58.1135 90.6673 57.9911 90.6673C56.7677 92.1336 55.0549 93.3555 53.0974 94.0887V96.8991H52.975ZM49.7941 96.6547H52.7303V94.0887H52.8527C54.9325 93.3555 56.6453 92.1336 57.7465 90.6673C61.1721 90.7895 61.2944 89.3232 61.5391 87.3681C61.5391 87.1237 61.5391 86.8793 61.6615 86.5127L59.3369 86.3905V86.1461C59.3369 83.9467 58.3582 81.8694 56.4007 80.2809C56.4007 77.9592 56.4007 76.7373 56.4007 76.3707C56.156 76.4929 55.4219 77.2261 53.9538 78.5702H53.8314C51.8739 77.7148 49.6717 77.2261 47.4695 77.2261C40.8629 77.2261 35.4797 81.2584 35.4797 86.1461C35.4797 86.2683 35.4797 86.2683 35.4797 86.3905C34.6233 87.3681 33.6446 87.6125 33.1552 87.6125C33.8892 88.1012 34.9903 88.2234 35.8468 88.3456H35.9691V88.4678C36.4585 90.0563 37.5596 91.4004 39.1501 92.6224V96.8991H42.0863V94.0887H42.2087C43.7992 94.6997 45.6343 94.944 47.4695 94.944C48.2036 94.944 48.9376 94.944 49.6717 94.8218H49.7941V96.6547Z" fill="#B2C1E8"></path><path d="M51.7517 80.1585H43.5547C43.0653 80.1585 42.6982 79.7919 42.6982 79.3031C42.6982 78.8143 43.0653 78.4478 43.5547 78.4478H51.7517C52.2411 78.4478 52.6082 78.8143 52.6082 79.3031C52.6082 79.7919 52.2411 80.1585 51.7517 80.1585ZM43.4323 78.6921C43.0653 78.6921 42.8206 78.9365 42.8206 79.3031C42.8206 79.6697 43.0653 79.9141 43.4323 79.9141H51.6294C51.9964 79.9141 52.2411 79.6697 52.2411 79.3031C52.2411 78.9365 51.9964 78.6921 51.6294 78.6921H43.4323Z" fill="#B2C1E8"></path><path d="M57.3796 85.9019C57.0125 85.9019 56.6455 85.5353 56.6455 85.1687C56.6455 84.8021 57.0125 84.4355 57.3796 84.4355C57.7466 84.4355 58.1136 84.8021 58.1136 85.1687C58.1136 85.5353 57.7466 85.9019 57.3796 85.9019ZM57.3796 84.5577C57.1349 84.5577 56.8902 84.8021 56.8902 85.0465C56.8902 85.2909 57.1349 85.5353 57.3796 85.5353C57.6243 85.5353 57.869 85.2909 57.869 85.0465C57.869 84.8021 57.6243 84.5577 57.3796 84.5577Z" fill="#B2C1E8"></path><path d="M251.663 9.28689C250.929 7.69838 249.706 6.59865 248.115 6.23207H247.993L248.849 2.68848H248.971C251.541 3.29944 253.743 5.25453 254.844 7.69838V7.82058L251.663 9.28689ZM248.36 6.10988C249.828 6.47646 251.174 7.57619 251.785 9.04251L254.722 7.69838C253.621 5.37672 251.541 3.66602 249.094 2.93286L248.36 6.10988Z" fill="#B2C1E8"></path><path d="M244.934 21.7506C240.04 21.7506 236.125 17.8404 236.125 12.9527C236.125 8.06496 240.04 4.15479 244.934 4.15479C245.668 4.15479 246.402 4.27698 247.014 4.39917H247.136L246.28 7.94276H246.157C245.79 7.82057 245.301 7.82057 244.934 7.82057C242.12 7.82057 239.795 10.1422 239.795 12.9527C239.795 15.7631 242.12 18.0848 244.934 18.0848C245.668 18.0848 246.524 17.9626 247.258 17.596H247.381L249.094 20.8952H248.971C247.748 21.5062 246.402 21.7506 244.934 21.7506ZM244.934 4.52136C240.162 4.52136 236.37 8.30934 236.37 13.0749C236.37 17.8404 240.162 21.6284 244.934 21.6284C246.28 21.6284 247.503 21.384 248.726 20.773L247.258 17.9626C246.524 18.3292 245.79 18.4514 244.934 18.4514C241.998 18.4514 239.551 16.0075 239.551 13.0749C239.551 10.1422 241.998 7.69838 244.934 7.69838C245.301 7.69838 245.668 7.69838 246.157 7.82057L246.891 4.76575C246.28 4.52136 245.668 4.52136 244.934 4.52136Z" fill="#B2C1E8"></path><path d="M249.583 20.4067L247.625 17.3518L247.748 17.2296C249.216 16.2521 250.195 14.6636 250.195 12.9529C250.195 12.2197 250.072 11.6088 249.828 10.8756V10.7534L253.131 9.28711V9.4093C253.62 10.509 253.865 11.731 253.865 12.9529C253.743 16.0077 252.275 18.8182 249.583 20.4067ZM247.993 17.474L249.705 20.1623C252.152 18.5738 253.498 15.8855 253.498 13.0751C253.498 11.9754 253.253 10.7534 252.764 9.77588L249.95 10.9978C250.195 11.6088 250.317 12.3419 250.317 13.0751C250.317 14.7858 249.461 16.4965 247.993 17.474Z" fill="#B2C1E8"></path><path d="M78.0562 40.2012H80.5031V47.7771H78.0562V40.2012ZM80.136 40.3234H78.1785V47.5327H80.136V40.3234Z" fill="#B2C1E8"></path><path d="M81.7266 42.0342H84.1734V47.7772H81.7266V42.0342ZM83.8064 42.2786H81.9712V47.5329H83.9288V42.2786H83.8064Z" fill="#B2C1E8"></path><path d="M74.2632 37.3911H76.7101V47.7775H74.2632V37.3911ZM76.4654 37.6355H74.5079V47.5331H76.4654V37.6355Z" fill="#B2C1E8"></path><path d="M70.5928 35.1914H73.0397V47.7773H70.5928V35.1914ZM72.795 35.4358H70.8375V47.5329H72.795V35.4358Z" fill="#B2C1E8"></path><path d="M87.2324 42.2286C87.2324 42.2286 87.2324 42.3508 87.2324 42.2286C87.2324 42.3508 87.1101 42.4729 87.1101 42.3508L70.3489 32.3309C70.3489 32.3309 70.2265 32.2087 70.3489 32.2087C70.3489 32.2087 70.4712 32.0865 70.4712 32.2087L87.2324 42.2286C87.1101 42.2286 87.1101 42.2286 87.2324 42.2286Z" fill="#B2C1E8"></path><path d="M71.9395 31.5979C71.9395 31.5979 71.9395 31.7201 71.9395 31.5979C71.9395 31.7201 71.9395 31.7201 71.8171 31.7201L69.8596 31.9645L70.8384 33.6752L70.8384 33.7974L70.716 33.7974L69.6149 31.9645L69.6149 31.8423C69.6149 31.8423 69.6149 31.8423 69.7373 31.7201L71.9395 31.5979C71.8171 31.5979 71.9395 31.5979 71.9395 31.5979Z" fill="#B2C1E8"></path><path d="M291.67 48.3885H289.223V40.8125H291.67V48.3885ZM289.467 48.1441H291.425V40.9347H289.467V48.1441Z" fill="#B2C1E8"></path><path d="M287.877 48.3882H285.43V38.124H287.877V48.3882ZM285.797 48.1438H287.754V38.3684H285.797V48.1438Z" fill="#B2C1E8"></path><path d="M274.419 40.8125H276.866V48.3885H274.419V40.8125ZM276.621 41.0569H274.664V48.2663H276.621V41.0569Z" fill="#B2C1E8"></path><path d="M278.211 38.124H280.658V48.3882H278.211V38.124ZM280.291 38.3684H278.334V48.1438H280.291V38.3684Z" fill="#B2C1E8"></path><path d="M284.207 48.3886H281.76V35.314H284.207V48.3886ZM282.127 48.1442H284.084V35.5584H282.127V48.1442Z" fill="#B2C1E8"></path><path d="M282.983 33.603L291.058 36.9022L291.18 37.0244L291.058 37.1466L283.105 33.9696L274.541 37.5132C274.541 37.5132 274.419 37.5132 274.419 37.391C274.419 37.391 274.419 37.2688 274.541 37.2688L282.983 33.603Z" fill="#B2C1E8"></path><path d="M289.345 37.3912C289.345 37.2691 289.345 37.2691 289.468 37.2691H291.425L290.691 35.4362C290.691 35.4362 290.691 35.314 290.813 35.314C290.813 35.314 290.936 35.314 290.936 35.4362L291.792 37.3912V37.5134C291.792 37.5134 291.792 37.5134 291.67 37.5134L289.345 37.3912C289.468 37.5134 289.345 37.5134 289.345 37.3912Z" fill="#B2C1E8"></path><path d="M303.66 131.969C299.622 131.969 296.319 128.67 296.319 124.637C296.319 120.605 299.622 117.306 303.66 117.306C307.697 117.306 311 120.605 311 124.637C311 128.67 307.697 131.969 303.66 131.969ZM303.66 117.55C299.745 117.55 296.564 120.727 296.564 124.637C296.564 128.547 299.745 131.724 303.66 131.724C307.575 131.724 310.756 128.547 310.756 124.637C310.756 120.727 307.575 117.55 303.66 117.55Z" fill="#B2C1E8"></path><path d="M303.659 128.914C301.213 128.914 299.377 126.959 299.377 124.637C299.377 122.315 301.335 120.36 303.659 120.36C305.984 120.36 307.942 122.315 307.942 124.637C307.942 126.959 305.984 128.914 303.659 128.914ZM303.659 120.605C301.457 120.605 299.622 122.438 299.622 124.637C299.622 126.837 301.457 128.669 303.659 128.669C305.862 128.669 307.697 126.837 307.697 124.637C307.697 122.438 305.862 120.605 303.659 120.605Z" fill="#B2C1E8"></path><path d="M303.66 126.592C302.559 126.592 301.702 125.737 301.702 124.637C301.702 123.537 302.559 122.682 303.66 122.682C304.761 122.682 305.617 123.537 305.617 124.637C305.617 125.737 304.761 126.592 303.66 126.592ZM303.66 122.927C302.681 122.927 301.947 123.66 301.947 124.637C301.947 125.615 302.681 126.348 303.66 126.348C304.638 126.348 305.372 125.615 305.372 124.637C305.372 123.66 304.516 122.927 303.66 122.927Z" fill="#B2C1E8"></path><path d="M303.66 124.637C303.537 124.637 303.537 124.637 303.66 124.637L292.159 118.528C292.159 118.528 292.037 118.405 292.159 118.405C292.159 118.405 292.282 118.283 292.282 118.405L303.66 124.515C303.66 124.393 303.782 124.515 303.66 124.637Z" fill="#B2C1E8"></path><path d="M294.728 119.505L293.872 117.794L292.037 116.45L292.648 118.161C292.648 118.161 292.648 118.283 292.526 118.283C292.526 118.283 292.404 118.283 292.404 118.161L291.547 116.084V115.961H291.67L293.872 117.55L294.728 119.138C294.851 119.383 294.851 119.505 294.728 119.505C294.851 119.505 294.728 119.505 294.728 119.505Z" fill="#B2C1E8"></path><path d="M292.893 120.36L290.324 119.627L290.202 119.505C290.202 119.505 290.202 119.383 290.324 119.383L292.282 118.894C292.404 118.894 292.404 118.894 292.404 119.016C292.404 119.138 292.404 119.138 292.282 119.138L290.691 119.505L292.893 120.116L294.484 119.872C294.606 119.872 294.606 119.872 294.606 119.994C294.606 120.116 294.606 120.116 294.484 120.116L292.893 120.36Z" fill="#B2C1E8"></path><path d="M242.609 157.384L128.829 120.849C124.302 119.382 121.855 114.617 123.323 110.096L143.143 48.3884C144.611 43.8673 149.383 41.4234 153.909 42.8897L267.69 79.4254C272.217 80.8917 274.664 85.6572 273.195 90.1784L253.376 151.886C251.908 156.285 247.136 158.851 242.609 157.384Z" fill="#F598A4"></path><path d="M260.546 130.312L130.433 88.6006L124.45 107.215L254.563 148.926L260.546 130.312Z" fill="#F2737E"></path><path d="M260.472 91.1559C260.716 90.4227 260.716 89.5674 260.349 88.8342C260.227 88.5898 259.982 88.5898 259.86 88.5898L259.738 88.712C259.615 88.8342 259.493 88.9564 259.615 89.2008C259.86 89.6896 259.86 90.3005 259.615 90.9115C259.493 91.5225 259.126 91.8891 258.636 92.2556C258.514 92.3778 258.392 92.5 258.514 92.7444L258.636 92.8666C258.759 93.111 259.003 93.111 259.126 92.9888C259.738 92.5 260.227 91.8891 260.472 91.1559Z" fill="#F2737E"></path><path d="M262.184 91.6447C262.551 90.4228 262.429 89.0787 261.94 87.8568C261.817 87.6124 261.572 87.6124 261.45 87.7346H261.328C261.205 87.8568 261.083 87.9789 261.205 88.2233C261.573 89.2009 261.695 90.3006 261.328 91.4003C260.961 92.5001 260.349 93.3554 259.37 93.8442C259.248 93.9664 259.126 94.2108 259.248 94.333V94.4552C259.37 94.6996 259.615 94.6996 259.737 94.5774C260.961 93.9664 261.817 92.9889 262.184 91.6447Z" fill="#F2737E"></path><path d="M263.775 92.1338C264.264 90.4231 264.142 88.7124 263.408 87.1238C263.285 86.8795 263.041 86.8795 262.918 87.0016C262.796 87.1238 262.674 87.246 262.796 87.4904C263.408 88.8345 263.53 90.4231 263.041 92.0116C262.551 93.6001 261.573 94.6998 260.227 95.5552C260.104 95.6773 259.982 95.9217 260.104 96.0439C260.227 96.2883 260.471 96.2883 260.594 96.1661C262.062 95.1886 263.163 93.8445 263.775 92.1338Z" fill="#F2737E"></path><path d="M265.488 92.6224C266.222 90.4229 265.977 88.2235 264.998 86.2684C264.876 86.024 264.631 86.024 264.509 86.1462L264.387 86.2684C264.264 86.3906 264.142 86.5128 264.264 86.7571C265.121 88.4678 265.243 90.4229 264.631 92.378C264.019 94.3331 262.674 95.9216 261.083 96.777C260.961 96.8992 260.838 97.1435 260.961 97.2657L261.083 97.3879C261.206 97.6323 261.45 97.6323 261.573 97.5101C263.285 96.5326 264.754 94.8219 265.488 92.6224Z" fill="#F2737E"></path><path d="M169.08 72.3382L148.526 65.7398C147.058 65.251 146.202 63.6625 146.691 62.1962L149.75 52.7874C150.239 51.3211 151.829 50.4657 153.298 50.9545L173.851 57.5529C175.32 58.0417 176.176 59.6302 175.687 61.0965L172.628 70.5053C172.261 71.9716 170.671 72.827 169.08 72.3382Z" fill="white"></path><path d="M207.496 177.302L87.9657 176.569C83.1942 176.569 79.4015 172.659 79.5239 168.015L79.8909 103.253C79.8909 98.4875 83.8059 94.6995 88.455 94.8217L207.986 95.5549C212.757 95.5549 216.55 99.4651 216.427 104.108L216.06 168.871C216.06 173.514 212.145 177.302 207.496 177.302Z" fill="#9886BF"></path><path d="M113.291 95.0659C106.562 105.452 94.0829 112.417 79.7686 112.417V131.968C102.402 131.968 120.754 115.472 120.754 95.0659H113.291Z" fill="#C3ACD3"></path><path d="M212.268 175.958C212.146 175.958 212.023 176.08 211.901 176.08C212.023 176.08 212.146 176.08 212.268 175.958Z" fill="#9886BF"></path><path d="M212.879 175.591C212.757 175.713 212.635 175.713 212.635 175.836C212.757 175.713 212.757 175.713 212.879 175.591Z" fill="#9886BF"></path><path d="M213.858 174.858C213.981 174.736 214.103 174.614 214.103 174.614C213.981 174.736 213.858 174.736 213.858 174.858Z" fill="#9886BF"></path><path d="M213.491 175.102C213.369 175.224 213.369 175.224 213.247 175.346C213.369 175.346 213.369 175.224 213.491 175.102Z" fill="#9886BF"></path><path d="M211.534 176.324C211.412 176.324 211.289 176.446 211.167 176.446C211.289 176.446 211.412 176.446 211.534 176.324Z" fill="#9886BF"></path><path d="M209.943 176.935C209.821 176.935 209.699 176.935 209.576 177.057C209.699 176.935 209.821 176.935 209.943 176.935Z" fill="#9886BF"></path><path d="M210.8 176.691C210.677 176.691 210.555 176.813 210.433 176.813C210.555 176.691 210.677 176.691 210.8 176.691Z" fill="#9886BF"></path><path d="M215.938 171.437C215.938 171.559 215.816 171.681 215.816 171.803C215.816 171.803 215.816 171.559 215.938 171.437Z" fill="#9886BF"></path><path d="M216.061 170.704C216.061 170.826 216.061 171.07 215.938 171.192C216.061 171.07 216.061 170.826 216.061 170.704Z" fill="#9886BF"></path><path d="M139.595 177.057H149.75C154.399 147.731 182.416 125.248 216.183 125.248V108.141C173.852 108.141 139.595 139.055 139.595 177.057Z" fill="#C3ACD3"></path><path d="M214.592 174.002C214.47 174.125 214.47 174.247 214.348 174.247C214.47 174.247 214.47 174.125 214.592 174.002Z" fill="#9886BF"></path><path d="M215.694 172.17C215.694 172.292 215.571 172.414 215.571 172.536C215.571 172.414 215.571 172.292 215.694 172.17Z" fill="#9886BF"></path><path d="M214.96 173.514C214.837 173.636 214.837 173.758 214.715 173.88C214.837 173.636 214.96 173.636 214.96 173.514Z" fill="#9886BF"></path><path d="M215.327 172.903C215.204 173.025 215.204 173.147 215.082 173.269C215.204 173.025 215.327 172.903 215.327 172.903Z" fill="#9886BF"></path><path d="M158.191 177.057H164.676C177.032 163.86 195.506 155.429 216.183 155.429V147.242C191.469 147.242 169.936 159.217 158.191 177.057Z" fill="#C3ACD3"></path><g opacity="0.73"><path opacity="0.73" d="M92.1255 113.15H111.456C112.068 113.15 112.557 113.639 112.557 114.128V126.592C112.557 127.203 112.068 127.569 111.456 127.569H92.1255C91.5138 127.569 91.0244 127.08 91.0244 126.592V114.128C91.0244 113.639 91.5138 113.15 92.1255 113.15Z" fill="white"></path></g><path d="M111.456 127.936H92.1254C91.269 127.936 90.6572 127.325 90.6572 126.591V114.128C90.6572 113.395 91.3913 112.784 92.1254 112.784H111.456C112.312 112.784 112.924 113.395 112.924 114.128V126.591C112.924 127.325 112.312 127.936 111.456 127.936ZM92.1254 113.517C91.7583 113.517 91.3913 113.761 91.3913 114.128V126.591C91.3913 126.958 91.7583 127.202 92.1254 127.202H111.456C111.823 127.202 112.19 126.958 112.19 126.591V114.128C112.19 113.761 111.823 113.517 111.456 113.517H92.1254Z" fill="#6D3D7E"></path><g opacity="0.73"><path opacity="0.73" d="M99.0992 114.495H104.605C105.461 114.495 106.073 115.106 106.073 115.839V124.881C106.073 125.614 105.339 126.225 104.605 126.225H99.0992C98.2428 126.225 97.6311 125.614 97.6311 124.881V115.839C97.5087 115.106 98.2428 114.495 99.0992 114.495Z" fill="white"></path></g><path d="M104.482 126.592H99.0991C97.998 126.592 97.1416 125.858 97.1416 124.881V115.839C97.1416 114.861 97.998 114.128 99.0991 114.128H104.605C105.706 114.128 106.562 114.861 106.562 115.839V124.881C106.44 125.858 105.583 126.592 104.482 126.592ZM99.0991 114.861C98.4874 114.861 97.998 115.35 97.998 115.839V124.881C97.998 125.492 98.4874 125.858 99.0991 125.858H104.605C105.216 125.858 105.706 125.37 105.706 124.881V115.839C105.706 115.228 105.216 114.861 104.605 114.861H99.0991Z" fill="#6D3D7E"></path><path d="M97.631 116.205H91.0244V116.938H97.631V116.205Z" fill="#6D3D7E"></path><path d="M97.631 118.771H91.0244V119.504H97.631V118.771Z" fill="#6D3D7E"></path><path d="M97.631 121.337H91.0244V122.071H97.631V121.337Z" fill="#6D3D7E"></path><path d="M97.631 123.781H91.0244V124.514H97.631V123.781Z" fill="#6D3D7E"></path><path d="M112.679 116.205H106.073V116.938H112.679V116.205Z" fill="#6D3D7E"></path><path d="M112.679 118.771H106.073V119.504H112.679V118.771Z" fill="#6D3D7E"></path><path d="M112.679 121.337H106.073V122.071H112.679V121.337Z" fill="#6D3D7E"></path><path d="M112.679 123.781H106.073V124.514H112.679V123.781Z" fill="#6D3D7E"></path><path d="M114.881 152.985H91.636C91.0243 152.985 90.6572 152.619 90.6572 152.008V146.387C90.6572 145.898 91.1466 145.409 91.636 145.409H114.881C115.493 145.409 115.86 145.776 115.86 146.387V152.008C115.86 152.619 115.371 152.985 114.881 152.985Z" fill="white"></path><path d="M134.09 166.182H92.4924C91.5136 166.182 90.6572 165.815 90.6572 165.449V161.294C90.6572 160.928 91.5136 160.561 92.4924 160.561H134.09C135.068 160.561 135.925 160.928 135.925 161.294V165.449C135.925 165.938 135.068 166.182 134.09 166.182Z" fill="white"></path><path d="M145.59 152.985H122.344C121.733 152.985 121.366 152.619 121.366 152.008V146.387C121.366 145.898 121.855 145.409 122.344 145.409H145.59C146.202 145.409 146.569 145.776 146.569 146.387V152.008C146.691 152.619 146.202 152.985 145.59 152.985Z" fill="white"></path><path d="M176.421 152.985H153.176C152.564 152.985 152.197 152.619 152.197 152.008V146.387C152.197 145.898 152.686 145.409 153.176 145.409H176.421C177.033 145.409 177.4 145.776 177.4 146.387V152.008C177.522 152.619 177.033 152.985 176.421 152.985Z" fill="white"></path><path d="M207.252 152.985H184.006C183.394 152.985 183.027 152.619 183.027 152.008V146.387C183.027 145.898 183.517 145.409 184.006 145.409H207.252C207.863 145.409 208.23 145.776 208.23 146.387V152.008C208.23 152.619 207.863 152.985 207.252 152.985Z" fill="white"></path><path d="M106.073 56.8199C104.972 54.2538 104.605 51.3212 100.2 51.5656C95.7959 51.4434 95.4289 54.376 94.3278 56.8199C93.1043 59.3859 88.8223 59.6303 88.8223 66.5953C88.8223 73.0715 99.0992 72.9493 100.2 72.9493C101.424 72.9493 111.578 73.0715 111.578 66.5953C111.701 59.6303 107.296 59.3859 106.073 56.8199Z" fill="#233862"></path><path d="M116.595 75.6376L114.76 71.483C113.903 69.7723 112.557 68.306 110.845 67.2063C109.254 66.1066 107.419 65.4956 105.584 65.0068C104.605 64.7624 103.749 64.6402 102.77 64.6402C102.158 64.6402 101.546 64.6402 100.935 64.6402C100.323 64.6402 99.7112 64.6402 98.9771 64.6402C98.3654 64.6402 97.7537 64.5181 97.1419 64.6402C96.6526 64.7624 96.1632 64.7624 95.6738 64.8846C94.695 65.129 93.8386 65.2512 92.9822 65.6178C91.3917 66.1066 89.8013 66.8397 88.5778 67.9394C87.4767 68.917 86.4979 70.1389 85.8862 71.3609L83.9287 75.5154L90.413 77.5927L91.5141 92.5002H108.887L109.988 77.5927L116.595 75.6376Z" fill="#F598A4"></path><path d="M90.2907 77.9593C90.2907 77.9593 90.1684 77.8371 90.2907 77.9593L91.3918 70.9943C91.3918 70.9943 91.3918 70.8721 91.5141 70.8721C91.5141 70.8721 91.6365 70.8721 91.6365 70.9943L90.2907 77.9593C90.413 77.8371 90.2907 77.9593 90.2907 77.9593Z" fill="black"></path><path d="M100.323 67.2061C98.9768 67.2061 97.8757 65.862 97.9981 64.2734L98.3651 61.3408H102.402L102.77 64.2734C102.77 65.862 101.668 67.2061 100.323 67.2061Z" fill="#8E5C38"></path><path d="M98.3653 60.4854L98.1206 62.4404C98.61 63.1736 99.4664 63.9067 100.323 63.9067C101.179 63.9067 101.913 63.1736 102.525 62.5626L102.28 60.6075H98.3653V60.4854Z" fill="#7A4B2B"></path><path d="M102.647 57.1864C100.934 57.1864 99.8332 56.5754 99.2215 55.8423C99.4662 56.5754 99.8332 57.1864 99.8332 57.1864C98.7321 56.5754 98.3651 55.4757 98.2427 54.8647C97.631 55.3535 97.1416 56.0867 97.1416 56.942V57.6752C97.1416 57.6752 97.1416 57.6752 97.0193 57.6752C96.5299 57.6752 96.0405 58.0418 96.0405 58.6527C96.0405 59.2637 96.4076 59.6303 97.0193 59.6303C97.0193 59.6303 97.0193 59.6303 97.1416 59.6303V59.7525C97.1416 61.4632 98.4874 63.5404 100.323 63.5404C102.158 63.5404 103.626 61.5854 103.626 59.7525V59.6303C104.115 59.6303 104.605 59.2637 104.605 58.6527C104.605 58.0418 104.238 57.6752 103.626 57.6752V57.0642C103.259 57.1864 103.014 57.1864 102.647 57.1864Z" fill="#8E5C38"></path><path d="M84.1725 85.902H83.9278C82.582 85.5354 81.9703 84.0691 82.3373 82.725L84.5395 76.0044L89.4333 77.5929L87.2311 84.3135C86.8641 85.6576 85.3959 86.3908 84.1725 85.902Z" fill="#8E5C38"></path><path d="M96.1631 85.1688L84.9074 86.1464C83.4393 86.2686 82.2158 85.1688 82.2158 83.5803V83.4581C82.2158 82.725 82.2158 81.2587 84.051 81.0143L96.1631 80.8921V85.1688Z" fill="#8E5C38"></path><path d="M116.35 85.7795H116.595C117.941 85.4129 118.552 83.9466 118.185 82.6024L115.983 75.8818L111.089 77.4703L113.292 84.191C113.659 85.5351 115.127 86.2682 116.35 85.7795Z" fill="#8E5C38"></path><path d="M104.36 85.1684L115.616 86.1459C117.084 86.2681 118.308 85.1684 118.308 83.5799V83.4577C118.308 82.7245 118.308 81.2582 116.472 81.0138L104.36 80.8916V85.1684Z" fill="#8E5C38"></path><path d="M109.254 89.201H90.9023C90.5353 89.201 90.2906 88.9566 90.2906 88.59L88.9448 73.5603C88.9448 73.1937 89.1895 72.8271 89.5565 72.8271H110.967C111.334 72.8271 111.701 73.1937 111.579 73.5603L109.866 88.59C109.866 88.9566 109.621 89.201 109.254 89.201Z" fill="#3353B0"></path><path d="M99.8337 120.605H95.5516L93.2271 107.042L99.8337 108.508V120.605Z" fill="#8E5C38"></path><path d="M100.568 121.46C100.568 119.505 98.9772 117.794 96.8974 117.794C94.8175 117.794 93.2271 119.383 93.2271 121.46H100.568Z" fill="black"></path><path d="M101.546 88.5903L101.179 112.907L93.1045 113.884C93.1045 113.884 84.1734 81.0143 97.7536 83.8248C100.078 84.3135 101.669 86.2686 101.546 88.5903Z" fill="#050542"></path><path d="M109.499 121.093L113.659 119.994L112.802 107.408L106.44 109.363L109.499 121.093Z" fill="#8E5C38"></path><path d="M109.254 121.46C108.765 119.505 109.988 117.55 111.946 117.061C113.903 116.572 115.861 117.794 116.35 119.749L109.254 121.46Z" fill="black"></path><path d="M99.8336 90.4231L106.44 113.395L113.781 112.54C113.781 112.54 114.76 78.8147 102.281 84.8022C100.323 85.9019 99.2219 88.2236 99.8336 90.4231Z" fill="#050542"></path><path d="M133.356 89.4452C133.723 90.6672 134.335 92.2557 135.191 92.6223C136.047 93.111 136.415 93.722 136.415 93.722L137.271 93.3554L138.25 92.8666C138.25 92.8666 138.25 92.7444 138.25 92.6223C138.25 92.5001 138.127 92.2557 138.127 92.0113C138.127 92.0113 137.883 91.6447 138.127 91.1559C138.372 90.6672 138.372 90.0562 138.127 89.5674C137.883 89.0787 137.638 87.9789 137.516 88.1011C137.026 88.1011 137.638 89.6896 137.393 89.934C137.149 90.1784 137.026 90.0562 137.026 90.0562C135.925 89.4452 134.702 86.3904 133.968 86.757C133.478 86.8792 133.234 88.9565 133.356 89.4452Z" fill="#FFB27D"></path><path d="M137.393 91.6444L135.803 92.6219C135.68 92.7441 135.558 92.6219 135.436 92.4997L132.01 86.6345C131.888 86.5123 132.01 86.3901 132.132 86.2679L133.723 85.2904C133.845 85.1682 133.968 85.2904 134.09 85.4126L137.516 91.2778C137.516 91.4 137.516 91.5222 137.393 91.6444Z" fill="#2B478B"></path><path d="M135.925 92.3773L134.946 92.8661C134.824 92.8661 134.702 92.8661 134.702 92.7439L131.276 86.8787C131.276 86.7565 131.276 86.6343 131.398 86.6343L132.377 86.1455C132.499 86.1455 132.622 86.1455 132.622 86.2677L136.047 92.133C136.047 92.2551 136.047 92.3773 135.925 92.3773Z" fill="#233862"></path><path d="M159.66 85.6572C159.66 85.6572 150.851 98.3653 147.792 100.565L138.249 92.1335C138.249 92.1335 136.781 92.5 135.925 93.8442C135.925 93.8442 140.941 107.041 147.058 108.019C153.053 109.118 163.085 94.2107 163.085 94.2107L159.66 85.6572Z" fill="#B9D8F9"></path><path d="M178.134 176.935H182.539C183.15 176.691 183.64 175.958 183.762 174.858C184.007 173.392 185.597 172.659 185.964 171.437C186.331 170.215 184.496 168.626 184.496 168.626L184.251 168.26L183.884 167.893L180.948 168.626C180.948 168.626 180.826 169.359 180.826 170.215C180.826 170.826 180.826 171.559 180.826 172.292C180.948 173.881 180.336 175.591 178.991 175.836C178.012 176.08 178.012 176.691 178.134 176.935Z" fill="#402961"></path><path d="M152.319 176.935H162.474C162.963 176.324 162.841 174.125 162.719 173.392C162.719 173.269 162.719 173.147 162.719 173.147C162.719 173.147 159.293 170.337 158.804 172.536C158.804 172.658 158.804 172.658 158.804 172.781C158.192 174.736 155.5 175.713 153.91 175.958C152.931 176.08 152.564 176.569 152.319 176.935Z" fill="#402961"></path><path d="M154.277 120.36C154.277 120.36 154.766 126.959 155.378 134.779C156.234 145.532 157.213 158.607 157.335 161.173C157.458 165.45 158.192 172.415 158.192 172.415C158.192 172.415 159.782 174.003 163.086 173.392C163.086 173.392 166.022 163.494 166.878 152.986C166.878 152.864 166.878 152.619 166.878 152.497C167.612 141.866 168.836 119.383 168.836 119.383L154.277 120.36Z" fill="#2B478B"></path><path d="M154.277 119.505C154.277 119.505 154.889 126.836 155.5 134.779L167.001 152.986C167.001 152.863 167.001 152.619 167.001 152.497C167.735 141.866 168.958 118.649 168.958 118.649L154.277 119.505Z" fill="#233862"></path><path d="M156.602 119.505C156.602 119.505 166.267 144.799 172.506 156.04C178.746 167.16 180.703 170.337 180.703 170.337C180.703 170.337 184.251 168.871 184.618 167.893C184.618 167.893 182.172 146.265 178.012 141.011C175.687 138.078 172.873 129.158 172.751 125.981C172.629 122.804 171.895 116.694 171.895 116.694L156.602 119.505Z" fill="#2B478B"></path><path d="M159.048 86.5124C162.719 87.7343 169.203 84.5573 169.203 84.5573C169.203 84.5573 165.777 81.9912 165.9 76.6147L163.086 78.9364L161.128 80.5249C161.128 80.5249 161.128 81.5025 161.373 83.091C161.373 83.4575 161.495 83.9463 161.618 84.5573C160.027 85.2904 159.048 86.5124 159.048 86.5124Z" fill="#FFB27D"></path><path d="M161.128 80.4028C161.128 80.4028 161.128 81.3803 161.373 82.9688C163.575 82.6023 166.022 79.0587 166.022 79.0587C164.921 78.6921 163.942 78.6921 163.085 78.8143L161.128 80.4028Z" fill="#ED975D"></path><path d="M160.027 80.4029C160.027 80.4029 166.144 81.3804 166.756 77.5924C167.368 73.8044 168.469 71.3606 164.676 70.5052C160.761 69.6499 159.782 70.994 159.293 72.2159C158.681 73.4379 158.437 80.0363 160.027 80.4029Z" fill="#FFB27D"></path><path d="M153.909 119.749C154.032 119.871 154.154 119.871 154.276 119.871C155.622 119.871 159.782 120.604 163.208 120.238C166.144 119.993 168.713 119.138 171.405 117.916C171.772 117.794 172.628 117.305 172.628 116.939C172.628 116.45 172.628 115.839 172.506 114.983C172.261 112.173 172.016 108.385 172.261 102.642C172.261 101.542 175.32 98.3653 175.32 97.3877C175.32 89.6896 170.915 85.1684 167.857 82.8468C167.612 82.6024 166.022 83.4577 164.553 84.1909C163.208 84.8019 161.862 84.9241 160.516 84.6797L159.293 85.7794C157.702 87.2457 155.989 89.2008 155.255 92.1334C154.644 94.6995 154.276 99.2206 154.032 103.986C153.909 106.186 153.909 108.263 153.787 110.34V110.462C153.787 110.707 153.787 110.829 153.787 111.073C153.787 116.572 153.787 119.749 153.909 119.749Z" fill="#DFEBFA"></path><path d="M166.756 77.2256C166.756 77.2256 166.144 77.1034 166.267 76.2481C166.389 75.3927 166.389 74.293 165.655 74.4152C164.921 74.6596 164.921 75.1483 164.676 74.9039C164.431 74.5374 164.431 73.1932 162.229 73.071C160.149 72.9489 159.293 73.682 158.314 73.3154C157.335 72.8267 157.335 71.3604 157.335 71.3604C157.335 71.3604 157.58 71.8491 158.07 72.0935C158.07 72.0935 156.479 69.894 158.314 68.3055C160.149 66.8392 162.107 67.8168 163.208 67.8168C165.655 67.9389 167.123 68.0611 167.979 69.6496C168.591 71.2382 168.224 75.6371 166.756 77.2256Z" fill="#2B478B"></path><path d="M161.25 67.9392C161.373 67.4504 161.862 66.7173 163.208 66.7173C164.187 66.7173 164.921 67.5726 164.798 68.1836C165.288 67.5726 166.389 67.2061 167.245 67.6948C168.346 68.3058 168.224 69.1611 167.979 70.0165C168.469 69.8943 169.447 70.0165 169.815 71.1162C170.182 72.3382 169.447 73.4379 168.836 73.8045C169.57 73.9267 170.182 74.6598 169.937 75.6374C169.325 77.2259 166.511 77.2259 166.511 77.2259L167.368 73.9267C166.756 73.3157 164.676 71.605 165.043 71.4828C165.288 71.3606 166.144 71.1162 166.634 70.8718L163.942 69.7721V69.6499C163.33 69.7721 161.74 70.2609 161.128 70.2609L159.66 71.2384C159.782 71.7272 160.027 73.0713 160.027 73.1935C159.905 73.3157 159.171 71.8494 159.171 71.8494C157.335 70.8718 157.825 69.1611 158.681 68.428C159.538 67.5726 160.883 67.6948 161.25 67.9392Z" fill="#2B478B"></path><path d="M167.979 103.131C167.001 99.0985 166.511 95.1884 166.756 92.2557C166.756 92.0114 167.001 91.8892 167.245 91.8892C167.49 91.8892 167.612 92.1335 167.612 92.2557C167.368 95.0662 167.857 98.9763 168.836 102.887C169.937 107.408 166.756 116.939 165.532 120.116C165.288 120.116 164.921 120.116 164.554 120.116C165.655 117.305 169.08 107.53 167.979 103.131Z" fill="#B9D8F9"></path><path d="M162.963 122.926C163.575 122.071 165.165 121.582 165.165 121.582L167.612 114.861L170.793 115.961L167.734 122.437C167.734 122.437 168.102 124.637 167.245 126.47C166.389 128.547 164.798 130.258 162.841 129.524C160.883 128.914 163.33 125.981 163.452 124.515C162.841 125.248 160.883 126.225 160.639 125.492C160.516 124.881 162.107 124.026 162.963 122.926Z" fill="#B4805E"></path><path d="M168.347 103.131C166.634 96.2883 166.144 87.4904 170.059 87.246C174.708 86.8794 175.565 96.5326 175.32 102.642C174.953 111.196 169.081 121.46 169.081 121.46L164.921 120.605C164.921 120.482 169.692 108.385 168.347 103.131Z" fill="#DFEBFA"></path><path d="M237.838 68.6721C237.838 68.6721 241.019 71.8491 241.631 71.3603C241.753 71.2381 244.934 68.5499 244.934 68.5499L249.094 65.0063C249.094 65.0063 248.237 64.0287 246.769 64.8841C245.423 65.7394 242.609 66.5948 240.529 65.6172C238.327 64.5175 237.838 68.6721 237.838 68.6721Z" fill="#003261"></path><path d="M212.635 39.5903C212.635 39.5903 214.96 41.4232 215.694 41.5454C216.428 41.6676 219.242 41.5454 219.976 42.0342C220.71 42.523 221.933 44.3559 222.056 44.9668C222.423 45.9444 220.098 45.2112 218.997 44.2337C218.875 44.1115 218.63 43.9893 218.508 43.9893C217.896 43.9893 216.673 44.1115 216.061 43.7449C215.327 43.3783 211.167 42.4008 211.167 42.4008L212.635 39.5903Z" fill="#FA9960"></path><path d="M196.118 16.8624C196.118 16.8624 195.874 36.0467 200.033 38.3683C202.113 39.4681 211.412 42.8895 214.225 43.5004C214.225 43.5004 214.959 43.0117 215.204 40.69C215.204 40.69 205.784 35.5579 204.56 33.2362C202.847 29.937 207.741 21.2613 205.417 18.0843C203.214 15.0295 198.932 13.1966 196.118 16.8624Z" fill="#617DBC"></path><path d="M199.911 57.6751C201.379 58.1639 202.848 58.5304 204.316 58.7748C208.842 59.6302 213.247 59.8746 215.449 61.7075C215.938 62.074 216.428 62.4406 217.039 62.8072C217.651 63.1738 218.263 63.5404 218.997 63.7847C221.689 65.0067 224.992 66.1064 228.173 66.9618C233.556 68.4281 238.45 69.5278 238.45 69.5278L242.487 65.862C241.998 65.6176 236.003 62.1962 228.418 58.2861C225.359 56.6976 222.056 54.9869 218.997 53.3984C218.63 53.154 218.141 52.9096 217.774 52.7874C216.795 52.2986 215.816 51.8098 214.96 51.3211C207.864 47.6553 202.236 44.7227 202.236 44.7227C202.236 44.7227 190.246 48.9994 191.225 52.0542C191.714 54.3759 193.916 55.72 199.911 57.6751Z" fill="#8E235E"></path><path d="M207.007 75.5151C207.007 75.5151 203.704 78.57 204.194 79.3031C204.316 79.4253 207.007 82.7245 207.007 82.7245L210.555 86.8791C210.555 86.8791 211.534 86.0237 210.678 84.5574C209.821 83.0911 208.965 80.4028 210.066 78.3256C211.167 76.1261 207.007 75.5151 207.007 75.5151Z" fill="#003261"></path><path d="M209.576 79.3028C209.576 79.3028 206.885 77.7142 206.151 76.2479C206.151 76.2479 213.491 62.9289 215.082 59.9963C215.204 59.8741 215.082 59.7519 214.96 59.6297C213.002 58.1634 194.895 57.919 191.959 54.742C190.98 53.6422 190.246 52.5425 189.879 51.6872C188.9 49.6099 189.022 48.0214 189.022 48.0214L206.273 44.2334C206.273 44.2334 222.423 50.4652 225.236 56.3305C228.295 62.1957 209.576 79.3028 209.576 79.3028Z" fill="#AB3773"></path><path d="M206.762 17.229C203.092 17.5956 197.709 13.4411 197.709 13.4411C197.709 13.4411 200.278 12.2191 201.624 9.04212C201.746 8.91992 201.746 8.67554 201.869 8.55335C202.236 8.55335 202.97 8.43115 203.704 8.43115L206.028 11.2416C206.028 11.2416 205.784 12.2191 205.172 13.9298C205.05 14.1742 204.927 14.5408 204.805 14.9074C206.028 16.0071 206.762 17.229 206.762 17.229Z" fill="#FA9960"></path><path d="M191.347 29.9369C190.858 36.7797 188.656 47.0439 188.9 48.999C189.145 50.5875 195.629 47.8993 197.954 47.7771C198.81 47.6549 199.911 47.5327 201.012 47.4105C204.071 46.9217 207.497 46.1886 207.986 45.2111V45.0889C207.986 44.9667 208.108 44.8445 207.986 44.7223C207.986 44.2335 207.619 43.6225 207.741 42.4006C207.864 41.0565 207.497 42.034 207.741 40.3233C207.741 40.079 207.741 39.9568 207.864 39.7124V39.5902V39.468C208.108 37.5129 208.353 35.5578 208.475 33.4805C208.598 32.2586 208.72 30.9145 208.72 29.8147C208.965 26.7599 208.965 23.9495 208.842 22.1166C208.475 19.184 207.13 17.1067 205.906 15.5182L204.927 14.4184C203.704 14.5406 202.236 14.0519 201.135 13.3187C199.789 12.4634 199.422 11.8524 199.177 12.0968C195.385 14.2963 191.959 21.5056 191.347 29.9369Z" fill="#7C94D8"></path><path d="M200.89 47.4104C203.949 46.9216 207.374 46.1884 207.864 45.2109V45.0887C207.864 44.9665 207.864 44.8443 207.864 44.7221C207.864 44.2334 207.497 43.6224 207.619 42.4005C207.741 41.0563 207.374 42.0339 207.619 40.3232C207.619 40.0788 207.619 39.9566 207.741 39.7122V39.59V39.4678L198.199 22.8496C198.199 22.8496 188.411 35.4355 200.89 47.4104Z" fill="#617DBC"></path><path d="M205.906 11.2416C205.906 11.2416 205.662 12.2191 205.05 13.9298C202.481 12.7079 201.747 10.1419 201.502 9.04212C201.624 8.91992 201.624 8.67554 201.747 8.55335C202.114 8.55335 202.848 8.43115 203.582 8.43115L205.906 11.2416Z" fill="#EB8D5A"></path><path d="M206.029 12.8303C206.029 12.8303 200.401 10.9974 201.624 7.57605C202.848 4.15465 202.848 1.46641 206.518 2.56614C210.188 3.54368 210.433 5.13219 210.311 6.35412C210.188 7.57605 207.497 13.1969 206.029 12.8303Z" fill="#FA9960"></path><path d="M224.138 46.8826L224.576 47.1011L230.919 34.4221L230.482 34.2036L224.138 46.8826Z" fill="#233862"></path><path d="M210.026 44.5969L224.615 47.1089L224.76 46.2659L210.171 43.7539L210.026 44.5969Z" fill="#233862"></path><path d="M210.188 45.3335C210.188 45.3335 214.715 47.2886 216.55 47.4108C218.386 47.533 219.976 46.922 220.221 46.5554C220.465 46.1889 221.077 45.4557 219.854 45.4557C218.63 45.4557 216.917 45.4557 216.917 45.2113C216.917 44.9669 217.896 45.0891 217.896 45.0891C217.896 45.0891 218.263 44.7225 217.896 44.6004C217.529 44.4782 216.428 43.9894 215.939 44.2338C215.449 44.356 214.96 45.0891 214.715 45.0891C214.348 44.9669 211.045 42.8896 211.045 42.8896L210.188 45.3335Z" fill="#FA9960"></path><path d="M197.22 17.8398C197.22 17.8398 194.895 36.9019 198.81 39.7124C200.768 41.0565 209.577 45.4554 212.268 46.3108C212.268 46.3108 213.125 45.9442 213.492 43.6225C213.492 43.6225 204.683 37.3907 203.826 35.069C202.481 31.6476 208.231 23.5829 206.396 20.1615C204.438 16.7401 200.401 14.4184 197.22 17.8398Z" fill="#7C94D8"></path><path d="M201.502 9.04211C201.502 9.04211 201.624 7.82018 202.481 7.20922C202.481 7.20922 202.358 5.98729 202.97 5.8651C203.459 5.7429 203.459 6.84264 203.704 6.59825C203.949 6.47606 205.05 5.86509 205.661 4.76536C206.273 3.66562 209.944 5.62071 210.433 5.98729C210.8 6.23167 212.39 5.7429 212.757 5.13194C212.757 5.13194 212.023 4.39878 211.779 3.78782C211.534 3.29904 209.454 -0.366741 205.661 -0.00016287C201.991 0.366416 201.257 2.07712 201.135 3.54343C201.135 5.00974 200.156 8.30895 201.502 9.04211Z" fill="#0D458D"></path><path d="M301.09 185H27.0381C27.0381 180.479 30.7084 176.936 35.1128 176.936H293.015C297.542 176.813 301.09 180.479 301.09 185Z" fill="#91B8FB"></path></g><defs><clipPath id="clip0"><rect width="311" height="185" fill="white"></rect></clipPath></defs></svg> 